<svg width="496" height="32" viewBox="0 0 496 32" fill="none" xmlns="http://www.w3.org/2000/svg">
<path d="M0 4C0 1.79086 1.79086 0 4 0H44C46.2091 0 48 1.79086 48 4V28C48 30.2091 46.2091 32 44 32H4C1.79086 32 0 30.2091 0 28V4Z" fill="white"/>
<path d="M41.31 10.0347H38.7953C38.0351 10.0347 37.4503 10.2686 37.0994 11.0289L32.3041 21.9645H35.6959C35.6959 21.9645 36.2807 20.5025 36.3977 20.1517C36.7486 20.1517 40.0819 20.1517 40.5497 20.1517C40.6667 20.561 40.9591 21.906 40.9591 21.906H44L41.31 10.0347ZM37.3333 17.6955C37.6257 16.9938 38.6199 14.3622 38.6199 14.3622C38.6199 14.4207 38.9123 13.6604 39.0293 13.2511L39.2632 14.3037C39.2632 14.3037 39.9064 17.1692 40.0234 17.754H37.3333V17.6955Z" fill="#3362AB"/>
<path d="M32.5381 18.0464C32.5381 20.5025 30.3158 22.1399 26.8655 22.1399C25.4035 22.1399 24 21.8475 23.2398 21.4966L23.7076 18.8066L24.117 18.982C25.1696 19.4499 25.8714 19.6253 27.1579 19.6253C28.0936 19.6253 29.0878 19.2744 29.0878 18.4557C29.0878 17.9294 28.6784 17.5785 27.3919 16.9937C26.1638 16.4089 24.5264 15.4733 24.5264 13.7774C24.5264 11.4382 26.8071 9.85922 30.0234 9.85922C31.2515 9.85922 32.3041 10.0931 32.9474 10.3855L32.4796 12.9586L32.2457 12.7247C31.6609 12.4908 30.9006 12.2569 29.7895 12.2569C28.5614 12.3154 27.9766 12.8417 27.9766 13.3095C27.9766 13.8358 28.6784 14.2452 29.7895 14.7715C31.6609 15.6487 32.5381 16.6428 32.5381 18.0464Z" fill="#3362AB"/>
<path d="M4.00003 10.1517L4.05851 9.91776H9.08775C9.7895 9.91776 10.3158 10.1517 10.4913 10.9119L11.6024 16.1751C10.4913 13.368 7.91816 11.0873 4.00003 10.1517Z" fill="#F9B50B"/>
<path d="M18.6784 10.0349L13.5906 21.9062H10.1403L7.21637 11.9647C9.32163 13.3097 11.076 15.415 11.7193 16.877L12.0702 18.1051L15.2281 9.97641H18.6784V10.0349Z" fill="#3362AB"/>
<path d="M20.0234 9.97641H23.2397L21.193 21.9062H17.9766L20.0234 9.97641Z" fill="#3362AB"/>
<path d="M64 4C64 1.79086 65.7909 0 68 0H108C110.209 0 112 1.79086 112 4V28C112 30.2091 110.209 32 108 32H68C65.7909 32 64 30.2091 64 28V4Z" fill="white"/>
<path d="M93.004 6.52744L82.6791 6.56252L82.9962 25.4728L93.3211 25.4377L93.004 6.52744Z" fill="#FF5F00"/>
<path d="M83.3574 16.0563C83.2927 12.2101 85.0144 8.79262 87.7118 6.57596C85.675 4.97737 83.1218 4.01603 80.3542 4.02539C73.7978 4.04758 68.584 9.45025 68.6961 16.1059C68.8081 22.7616 74.2032 28.1284 80.7597 28.1062C83.5272 28.0968 86.0478 27.1183 88.0305 25.5061C85.2593 23.3414 83.4222 19.9026 83.3574 16.0563Z" fill="#EB001B"/>
<path d="M107.304 15.8944C107.416 22.5501 102.202 27.9528 95.6459 27.975C92.8783 27.9843 90.3251 27.023 88.2883 25.4244C91.0187 23.2076 92.7074 19.7903 92.6427 15.944C92.5779 12.0978 90.7413 8.69237 87.9696 6.49421C89.9523 4.88203 92.4729 3.90352 95.2404 3.89416C101.797 3.87197 107.193 9.27221 107.304 15.8944Z" fill="#F79E1B"/>
<g clip-path="url(#clip0_1405_933)">
<path d="M128 4C128 1.79086 129.791 0 132 0H172C174.209 0 176 1.79086 176 4V28C176 30.2091 174.209 32 172 32H132C129.791 32 128 30.2091 128 28V4Z" fill="white"/>
<path d="M163.423 9.87066L162.494 11.9181H164.357L163.423 9.87066ZM152.706 11.1394C152.881 11.0563 152.984 10.8756 152.984 10.6511C152.984 10.4312 152.875 10.2719 152.7 10.1971C152.541 10.1141 152.296 10.1045 152.06 10.1045H150.399V11.2453H152.038C152.301 11.2453 152.52 11.2418 152.706 11.1394ZM131.415 9.87066L130.496 11.9181H132.338L131.415 9.87066ZM174.166 22.9869H171.561V21.8853H174.156C174.413 21.8853 174.593 21.8546 174.702 21.7581C174.804 21.672 174.862 21.5503 174.861 21.4231C174.861 21.2734 174.796 21.1546 174.696 21.0835C174.599 21.005 174.456 20.9693 174.221 20.9693C172.954 20.9302 171.373 21.0049 171.373 19.3793C171.373 18.6343 171.893 17.8501 173.309 17.8501H175.997V16.828H173.5C172.746 16.828 172.199 16.9922 171.811 17.2476V16.828H168.117C167.527 16.828 166.834 16.9611 166.506 17.2476V16.828H159.909V17.2476C159.384 16.903 158.498 16.828 158.09 16.828H153.739V17.2476C153.324 16.8817 152.4 16.828 151.837 16.828H146.968L145.854 17.925L144.81 16.828H137.536V23.9964H144.673L145.821 22.8818L146.902 23.9964L151.301 23.9999V22.3136H151.734C152.318 22.3222 153.006 22.3006 153.613 22.0617V23.9962H157.242V22.1278H157.417C157.64 22.1278 157.662 22.1363 157.662 22.3393V23.9958H168.685C169.385 23.9958 170.117 23.833 170.522 23.5369V23.9958H174.018C174.746 23.9958 175.456 23.903 175.997 23.6654V22.3301C175.669 22.7661 175.031 22.9872 174.166 22.9872L174.166 22.9869ZM151.792 21.2943H150.108V23.0173H147.485L145.824 21.3168L144.097 23.0173H138.752V17.8803H144.179L145.839 19.5642L147.556 17.8803H151.867C152.938 17.8803 154.141 18.1501 154.141 19.5727C154.141 20.9997 152.971 21.2943 151.792 21.2943ZM159.888 21.0614C160.078 21.3121 160.106 21.5462 160.112 21.999V23.0174H158.757V22.3747C158.757 22.0657 158.789 21.6081 158.539 21.3692C158.342 21.1852 158.041 21.1413 157.549 21.1413H156.107V23.0174H154.751V17.8804H157.866C158.549 17.8804 159.047 17.908 159.49 18.1228C159.915 18.3568 160.183 18.6775 160.183 19.2635C160.183 20.0834 159.582 20.5016 159.227 20.6302C159.527 20.731 159.773 20.9117 159.888 21.0614ZM165.462 18.9427H162.302V19.8766H165.385V20.9248H162.302V21.9468L165.462 21.9514V23.0173H160.958V17.8803H165.462V18.9427ZM168.929 23.0173H166.301V21.9157H168.919C169.175 21.9157 169.356 21.8849 169.47 21.7884C169.563 21.709 169.629 21.5935 169.629 21.4536C169.629 21.3038 169.557 21.185 169.465 21.1137C169.362 21.0354 169.219 20.9999 168.984 20.9999C167.722 20.9605 166.142 21.0352 166.142 19.4098C166.142 18.6647 166.657 17.8804 168.071 17.8804H170.777V18.9736H168.301C168.056 18.9736 167.896 18.9821 167.761 19.0666C167.613 19.1498 167.558 19.2732 167.558 19.436C167.558 19.6298 167.683 19.7617 167.853 19.8187C167.995 19.8637 168.148 19.8769 168.378 19.8769L169.105 19.895C169.837 19.9109 170.34 20.0264 170.646 20.3079C170.908 20.5552 171.049 20.8676 171.049 21.3962C171.049 22.5014 170.29 23.0173 168.929 23.0173ZM158.464 19.0256C158.301 18.9375 158.06 18.9328 157.82 18.9328H156.158V20.0865H157.798C158.06 20.0865 158.284 20.078 158.464 19.9806C158.639 19.8844 158.743 19.7073 158.743 19.4876C158.743 19.2679 158.639 19.1088 158.464 19.0256ZM173.54 18.9327C173.295 18.9327 173.132 18.9412 172.994 19.0255C172.852 19.1088 172.797 19.2322 172.797 19.3951C172.797 19.5888 172.918 19.7207 173.092 19.7778C173.235 19.8228 173.388 19.836 173.612 19.836L174.344 19.8537C175.082 19.8704 175.574 19.9859 175.875 20.2674C175.93 20.3064 175.962 20.3504 176 20.3944V18.9328H173.541L173.54 18.9327ZM151.838 18.9327H150.079V20.241H151.823C152.341 20.241 152.664 20.007 152.664 19.5626C152.664 19.1134 152.326 18.9327 151.838 18.9327ZM140.096 18.9327V19.8667H143.058V20.9148H140.096V21.9368H143.414L144.955 20.4298L143.479 18.9327H140.096ZM148.759 22.525V18.4066L146.687 20.4327L148.759 22.525ZM140.209 14.2774V15.1625H151.483L151.478 13.29H151.696C151.848 13.2948 151.893 13.3076 151.893 13.5371V15.1626H157.724V14.7266C158.194 14.9559 158.925 15.1626 159.888 15.1626H162.341L162.866 14.0218H164.03L164.543 15.1626H169.27V14.079L169.986 15.1625H173.774V7.99991H170.025V8.84583L169.5 7.99991H165.654V8.84583L165.171 7.99991H159.975C159.106 7.99991 158.341 8.11034 157.724 8.41816V7.99991H154.138V8.41816C153.745 8.10088 153.209 7.99991 152.614 7.99991H139.514L138.635 9.84998L137.732 7.99991H133.606V8.84583L133.153 7.99991H129.634L128 11.4056V14.1297L130.416 8.99389H132.421L134.716 13.8564V8.99389H136.919L138.684 12.4779L140.307 8.99389H142.553V14.1297H141.17L141.165 10.1074L139.209 14.1297H138.024L136.062 10.1039V14.1297H133.317L132.799 12.9841H129.989L129.466 14.1297H128V15.1629H130.306L130.825 14.0221H131.989L132.508 15.1629H137.044V14.2907L137.449 15.1665H139.804L140.209 14.2775L140.209 14.2774ZM157.974 9.59253C158.41 9.18263 159.093 8.9936 160.023 8.9936H161.329V10.094H160.05C159.558 10.094 159.28 10.1607 159.012 10.3984C158.782 10.6146 158.624 11.0234 158.624 11.5616C158.624 12.1119 158.745 12.5086 158.995 12.7677C159.203 12.9709 159.581 13.0326 159.936 13.0326H160.542L162.444 8.99378H164.465L166.75 13.8515V8.99384H168.805L171.177 12.5706V8.99384H172.559V14.1295H170.647L168.089 10.2748V14.1295H165.341L164.816 12.9839H162.013L161.503 14.1295H159.924C159.268 14.1295 158.438 13.9975 157.967 13.5614C157.493 13.1254 157.247 12.5347 157.247 11.6008C157.246 10.8391 157.394 10.1428 157.974 9.59253ZM155.198 8.99366H156.575V14.1295H155.198V8.99366ZM148.991 8.99366H152.095C152.784 8.99366 153.292 9.01031 153.729 9.23966C154.155 9.46906 154.411 9.80399 154.411 10.3767C154.411 11.1957 153.811 11.6187 153.461 11.7457C153.756 11.848 154.008 12.0286 154.128 12.1782C154.319 12.4337 154.352 12.6618 154.352 13.1205V14.1294H152.991L152.986 13.4818C152.986 13.1727 153.018 12.7282 152.773 12.4813C152.576 12.3007 152.275 12.2614 151.789 12.2614H150.341V14.1295H148.991L148.991 8.99366ZM143.551 8.99366H148.059V10.0631H144.901V10.9889H147.983V12.0416H144.901V13.0673H148.059V14.1294H143.551V8.99366Z" fill="#2557D6"/>
</g>
<path d="M192 4C192 1.79086 193.791 0 196 0H236C238.209 0 240 1.79086 240 4V28C240 30.2091 238.209 32 236 32H196C193.791 32 192 30.2091 192 28V4Z" fill="white"/>
<path d="M221.249 25.4358H210.75V6.56726H221.249V25.4358Z" fill="#6C6BBD"/>
<path d="M211.422 16C211.422 12.1724 213.214 8.76287 216.005 6.56566C213.964 4.95895 211.389 3.99995 208.59 3.99995C201.963 3.99995 196.591 9.37245 196.591 16C196.591 22.6275 201.963 28 208.59 28C211.389 28 213.964 27.041 216.005 25.4342C213.214 23.237 211.422 19.8275 211.422 16Z" fill="#EB001B"/>
<path d="M235.409 16C235.409 22.6275 230.037 28 223.41 28C220.611 28 218.035 27.041 215.994 25.4342C218.785 23.237 220.577 19.8275 220.577 16C220.577 12.1724 218.785 8.76287 215.994 6.56566C218.035 4.95895 220.611 3.99995 223.41 3.99995C230.037 3.99995 235.409 9.37245 235.409 16Z" fill="#0099DF"/>
<path d="M256 4C256 1.79086 257.791 0 260 0H300C302.209 0 304 1.79086 304 4V28C304 30.2091 302.209 32 300 32H260C257.791 32 256 30.2091 256 28V4Z" fill="white"/>
<path d="M284.58 15.982C284.584 15.1223 284.262 14.2613 283.613 13.6125C282.963 12.9624 282.1 12.6403 281.238 12.6455C281.234 12.6455 281.23 12.6452 281.226 12.6452C279.355 12.6452 277.871 14.1287 277.871 16C277.871 17.8528 279.373 19.3546 281.226 19.3546C283.097 19.3546 284.581 17.8708 284.581 16C284.581 15.9939 284.58 15.9881 284.58 15.982Z" fill="#F26E21"/>
<path d="M277.247 17.4191C276.746 17.921 276.283 18.1172 275.785 18.1278C274.57 18.1169 273.677 17.2176 273.677 15.9354C273.677 15.29 273.922 14.761 274.309 14.3091C274.672 13.9644 275.14 13.7418 275.678 13.7418C276.258 13.7418 276.71 13.9353 277.226 14.4514V12.9676C276.71 12.7097 276.258 12.5806 275.678 12.5806C274.857 12.6392 274.084 12.9705 273.491 13.4909C273.32 13.6447 273.156 13.8145 273.017 14.0088C272.584 14.5703 272.322 15.2579 272.322 16.0002C272.322 17.8708 273.807 19.2901 275.677 19.2901C275.687 19.2901 275.696 19.2893 275.704 19.2892C275.717 19.2894 275.729 19.2901 275.742 19.2901C276.258 19.2901 276.71 19.1614 277.29 18.9033L277.247 17.4191C277.226 17.4409 277.269 17.4611 277.247 17.4817V17.4191Z" fill="#2B2B2B"/>
<path d="M288.816 13.5045L287.355 17.0966L285.677 12.8383H284.323L286.968 19.3544H287.677L290.452 12.8383H289.097L288.816 13.5045Z" fill="#2B2B2B"/>
<path d="M290.968 15.6771V19.1612H294.452H294.516V18.1285H293.419H292.258V16.9675V16.3871H294.452V15.2899H292.258V13.9352H294.516V12.8383H290.968V15.6771Z" fill="#2B2B2B"/>
<path d="M261.807 12.8383H260V19.1612H261.807C262.774 19.1612 263.484 18.9029 264.064 18.4512C264.774 17.8706 265.226 16.9676 265.226 16C265.226 14.1286 263.871 12.8383 261.807 12.8383ZM263.29 17.6128C262.903 17.9352 262.387 18.1285 261.613 18.1285H261.226V13.9351H261.548C262.323 13.9351 262.839 14.0642 263.226 14.4511C263.678 14.838 263.936 15.419 263.936 15.9998C264 16.5804 263.742 17.2253 263.29 17.6128Z" fill="#2B2B2B"/>
<path d="M267.033 12.8378H265.807V19.1605H267.033V12.8378Z" fill="#2B2B2B"/>
<path d="M270.129 15.29C269.355 15.032 269.161 14.8383 269.161 14.5158C269.161 14.1287 269.548 13.8062 270.065 13.8062C270.452 13.8062 270.774 13.9353 271.097 14.3224L271.742 13.4838C271.226 13.032 270.581 12.7742 269.871 12.7742C268.774 12.7742 267.871 13.5484 267.871 14.5804C267.871 15.4838 268.258 15.8708 269.419 16.3224C269.936 16.5157 270.129 16.5805 270.258 16.7095C270.516 16.8383 270.645 17.0966 270.645 17.3544C270.645 17.8706 270.258 18.2578 269.677 18.2578C269.096 18.2578 268.581 17.9353 268.323 17.419L267.548 18.1933C268.129 19.0319 268.839 19.419 269.742 19.419C271.032 19.419 271.935 18.5803 271.935 17.3544C271.935 16.2579 271.549 15.8062 270.129 15.29Z" fill="#2B2B2B"/>
<path d="M298 16.5156C298.968 16.3224 299.484 15.677 299.484 14.7095C299.484 13.5484 298.645 12.8383 297.226 12.8383H295.355V19.1612H296.581V16.6447H296.774L298.516 19.1612H300L298 16.5156ZM296.968 15.7414H296.581V13.8061H296.968C297.742 13.8061 298.194 14.1286 298.194 14.7742C298.194 15.419 297.742 15.7414 296.968 15.7414Z" fill="#2B2B2B"/>
<path d="M320 4C320 1.79086 321.791 0 324 0H364C366.209 0 368 1.79086 368 4V28C368 30.2091 366.209 32 364 32H324C321.791 32 320 30.2091 320 28V4Z" fill="white"/>
<path d="M330.771 11.5174C330.27 11.1727 329.615 10.9999 328.808 10.9999H325.683C325.436 10.9999 325.299 11.1237 325.273 11.3709L324.004 19.3388C323.991 19.417 324.01 19.4886 324.063 19.5537C324.114 19.6189 324.18 19.6513 324.258 19.6513H325.742C326.002 19.6513 326.145 19.5278 326.172 19.2803L326.523 17.1322C326.536 17.0281 326.582 16.9434 326.66 16.8782C326.738 16.8132 326.836 16.7706 326.953 16.7511C327.07 16.7318 327.181 16.722 327.285 16.722C327.389 16.722 327.513 16.7286 327.656 16.7416C327.799 16.7545 327.89 16.7609 327.929 16.7609C329.049 16.7609 329.928 16.4454 330.566 15.8138C331.204 15.1825 331.523 14.307 331.523 13.187C331.523 12.4189 331.272 11.8624 330.771 11.5172V11.5174ZM329.16 13.9099C329.095 14.3656 328.925 14.6649 328.652 14.8082C328.379 14.9516 327.988 15.023 327.48 15.023L326.836 15.0425L327.168 12.9528C327.194 12.8097 327.278 12.7381 327.422 12.7381H327.793C328.313 12.7381 328.691 12.8131 328.926 12.9626C329.16 13.1124 329.238 13.4283 329.16 13.9099Z" fill="#003087"/>
<path d="M363.746 11.0001H362.301C362.157 11.0001 362.073 11.0717 362.047 11.215L360.778 19.3393L360.758 19.3783C360.758 19.4437 360.784 19.5053 360.836 19.5639C360.888 19.6224 360.953 19.6517 361.031 19.6517H362.321C362.567 19.6517 362.704 19.5283 362.731 19.2807L364 11.2932V11.2738C364 11.0914 363.915 11.0003 363.746 11.0003V11.0001Z" fill="#009CDE"/>
<path d="M346.287 14.1449C346.287 14.0799 346.261 14.018 346.209 13.9595C346.157 13.901 346.098 13.8715 346.033 13.8715H344.529C344.386 13.8715 344.269 13.9369 344.178 14.0667L342.108 17.1134L341.248 14.184C341.183 13.9759 341.04 13.8715 340.819 13.8715H339.354C339.289 13.8715 339.23 13.9008 339.178 13.9595C339.126 14.018 339.1 14.08 339.1 14.1449C339.1 14.1711 339.227 14.555 339.481 15.2971C339.735 16.0395 340.008 16.8402 340.301 17.6995C340.594 18.5587 340.747 19.0146 340.76 19.0663C339.692 20.5247 339.159 21.3058 339.159 21.4098C339.159 21.5792 339.243 21.6638 339.413 21.6638H340.916C341.06 21.6638 341.177 21.5988 341.268 21.4686L346.248 14.2815C346.274 14.2557 346.287 14.2104 346.287 14.1448V14.1449Z" fill="#003087"/>
<path d="M360.29 13.8711H358.805C358.623 13.8711 358.513 14.086 358.474 14.5158C358.135 13.9951 357.517 13.7345 356.618 13.7345C355.681 13.7345 354.883 14.086 354.226 14.7891C353.568 15.4922 353.24 16.3192 353.24 17.2695C353.24 18.0378 353.464 18.6497 353.913 19.1052C354.362 19.5612 354.965 19.7887 355.72 19.7887C356.097 19.7887 356.481 19.7105 356.872 19.5544C357.263 19.3982 357.568 19.19 357.79 18.9295C357.79 18.9425 357.777 19.0009 357.751 19.105C357.725 19.2094 357.712 19.2877 357.712 19.3394C357.712 19.5479 357.796 19.6518 357.966 19.6518H359.313C359.56 19.6518 359.704 19.5284 359.743 19.2808L360.544 14.1836C360.556 14.1054 360.537 14.0339 360.485 13.9687C360.433 13.9038 360.368 13.8711 360.29 13.8711ZM357.741 17.7186C357.409 18.0441 357.009 18.2068 356.54 18.2068C356.162 18.2068 355.857 18.1028 355.622 17.8944C355.388 17.6865 355.27 17.4 355.27 17.0351C355.27 16.5537 355.433 16.1465 355.759 15.8145C356.084 15.4825 356.488 15.3166 356.97 15.3166C357.334 15.3166 357.637 15.424 357.878 15.6387C358.118 15.8536 358.239 16.1498 358.239 16.5274C358.239 16.9961 358.073 17.3933 357.741 17.7186Z" fill="#009CDE"/>
<path d="M338.104 13.8711H336.62C336.437 13.8711 336.327 14.086 336.288 14.5158C335.936 13.9951 335.318 13.7345 334.432 13.7345C333.495 13.7345 332.697 14.086 332.04 14.7891C331.382 15.4922 331.054 16.3192 331.054 17.2695C331.054 18.0378 331.278 18.6497 331.728 19.1052C332.177 19.5612 332.779 19.7887 333.534 19.7887C333.898 19.7887 334.276 19.7105 334.667 19.5544C335.057 19.3982 335.37 19.19 335.604 18.9295C335.552 19.0856 335.526 19.2223 335.526 19.3394C335.526 19.5479 335.611 19.6518 335.78 19.6518H337.127C337.375 19.6518 337.518 19.5284 337.557 19.2808L338.358 14.1836C338.371 14.1054 338.351 14.0339 338.299 13.9687C338.247 13.9038 338.182 13.8711 338.104 13.8711ZM335.555 17.7283C335.223 18.0477 334.816 18.2068 334.335 18.2068C333.957 18.2068 333.654 18.1028 333.427 17.8944C333.199 17.6865 333.085 17.4 333.085 17.0351C333.085 16.5537 333.248 16.1465 333.573 15.8145C333.898 15.4825 334.302 15.3165 334.784 15.3165C335.148 15.3165 335.451 15.424 335.692 15.6387C335.933 15.8536 336.053 16.1498 336.053 16.5274C336.053 17.0092 335.887 17.4097 335.555 17.7283Z" fill="#003087"/>
<path d="M352.956 11.5175C352.455 11.1728 351.801 11.0001 350.994 11.0001H347.888C347.628 11.0001 347.485 11.1238 347.459 11.3711L346.189 19.3389C346.176 19.4172 346.196 19.4887 346.248 19.5538C346.3 19.619 346.365 19.6514 346.443 19.6514H348.045C348.201 19.6514 348.305 19.5669 348.357 19.3976L348.709 17.1323C348.722 17.0282 348.767 16.9435 348.845 16.8784C348.924 16.8133 349.021 16.7707 349.138 16.7513C349.255 16.7319 349.366 16.7221 349.47 16.7221C349.574 16.7221 349.698 16.7288 349.841 16.7417C349.984 16.7547 350.076 16.7611 350.115 16.7611C351.235 16.7611 352.113 16.4456 352.751 15.8139C353.389 15.1826 353.708 14.3071 353.708 13.1872C353.708 12.419 353.457 11.8625 352.956 11.5173V11.5175ZM350.955 14.7301C350.668 14.9254 350.238 15.023 349.666 15.023L349.041 15.0426L349.373 12.9528C349.398 12.8098 349.483 12.738 349.627 12.738H349.978C350.264 12.738 350.492 12.7511 350.662 12.7771C350.831 12.8032 350.994 12.8845 351.15 13.0211C351.306 13.1579 351.384 13.3565 351.384 13.6168C351.384 14.1638 351.241 14.5347 350.955 14.7301Z" fill="#009CDE"/>
<path d="M384 4C384 1.79086 385.791 0 388 0H428C430.209 0 432 1.79086 432 4V28C432 30.2091 430.209 32 428 32H388C385.791 32 384 30.2091 384 28V4Z" fill="white"/>
<path d="M406.917 17.0753V21.699H405.44V10.2804H409.358C409.825 10.2707 410.29 10.353 410.726 10.5227C411.161 10.6923 411.558 10.946 411.894 11.2689C412.234 11.5722 412.504 11.9442 412.687 12.3599C412.87 12.7755 412.961 13.2252 412.954 13.6787C412.964 14.1346 412.874 14.5873 412.691 15.0056C412.508 15.4239 412.236 15.798 411.894 16.1022C411.209 16.7509 410.364 17.0749 409.358 17.0743H406.917V17.0753ZM406.917 11.6862V15.6722H409.394C409.666 15.6802 409.936 15.6318 410.188 15.5301C410.439 15.4285 410.667 15.2758 410.856 15.0818C411.044 14.9004 411.193 14.6835 411.295 14.4438C411.397 14.2042 411.449 13.9466 411.449 13.6865C411.449 13.4263 411.397 13.1687 411.295 12.9291C411.193 12.6894 411.044 12.4725 410.856 12.2911C410.669 12.0931 410.443 11.9366 410.191 11.8322C409.939 11.7277 409.667 11.6776 409.394 11.6853H406.917V11.6862Z" fill="#5F6368"/>
<path d="M416.358 13.6318C417.45 13.6318 418.311 13.9215 418.943 14.5009C419.575 15.0804 419.891 15.8749 419.89 16.8843V21.6994H418.477V20.6153H418.413C417.801 21.5081 416.988 21.9546 415.972 21.9546C415.106 21.9546 414.381 21.6994 413.797 21.1892C413.517 20.9551 413.293 20.6618 413.142 20.3308C412.991 19.9998 412.915 19.6394 412.922 19.276C412.922 18.4675 413.23 17.8246 413.845 17.3472C414.46 16.8698 415.282 16.6305 416.309 16.6292C417.186 16.6292 417.909 16.7887 418.476 17.1076V16.7723C418.478 16.5245 418.424 16.2794 418.318 16.0549C418.213 15.8303 418.058 15.6319 417.866 15.474C417.475 15.124 416.966 14.9331 416.44 14.9392C415.615 14.9392 414.962 15.2848 414.482 15.976L413.181 15.1624C413.896 14.142 414.955 13.6318 416.358 13.6318ZM414.447 19.3078C414.446 19.4945 414.49 19.6787 414.575 19.8451C414.66 20.0115 414.784 20.1553 414.937 20.2645C415.263 20.5197 415.669 20.6549 416.084 20.6471C416.708 20.6461 417.305 20.3997 417.746 19.962C418.235 19.5046 418.48 18.968 418.48 18.3521C418.019 17.9877 417.377 17.8055 416.553 17.8055C415.953 17.8055 415.453 17.9491 415.052 18.2364C414.648 18.5279 414.447 18.8824 414.447 19.3078Z" fill="#5F6368"/>
<path d="M428 13.8866L423.068 25.1431H421.543L423.373 21.2044L420.13 13.8866H421.736L424.08 19.4989H424.112L426.392 13.8866H428Z" fill="#5F6368"/>
<path d="M400.949 16.0786C400.949 15.6315 400.911 15.1853 400.835 14.7447H394.605V17.2712H398.173C398.1 17.6747 397.946 18.0593 397.719 18.4019C397.492 18.7446 397.198 19.038 396.854 19.2646V20.9046H398.983C400.23 19.763 400.949 18.0748 400.949 16.0786Z" fill="#4285F4"/>
<path d="M394.605 22.489C396.388 22.489 397.889 21.9077 398.983 20.9055L396.854 19.2656C396.261 19.6646 395.498 19.8924 394.605 19.8924C392.882 19.8924 391.42 18.739 390.897 17.1846H388.703V18.8747C389.253 19.9612 390.096 20.8745 391.138 21.5127C392.181 22.1509 393.381 22.4889 394.605 22.489Z" fill="#34A853"/>
<path d="M390.897 17.1849C390.621 16.3705 390.621 15.4885 390.897 14.674V12.9839H388.703C388.241 13.8979 388 14.9066 388 15.9295C388 16.9523 388.241 17.9611 388.703 18.875L390.897 17.1849Z" fill="#FBBC04"/>
<path d="M394.605 11.9662C395.547 11.9509 396.458 12.3043 397.139 12.9501L399.025 11.0779C397.829 9.96276 396.245 9.35055 394.605 9.36957C393.381 9.36963 392.181 9.70763 391.138 10.3459C390.096 10.9841 389.253 11.8974 388.703 12.9839L390.897 14.6739C391.42 13.1196 392.882 11.9662 394.605 11.9662Z" fill="#EA4335"/>
<path d="M448 4C448 1.79086 449.791 0 452 0H492C494.209 0 496 1.79086 496 4V28C496 30.2091 494.209 32 492 32H452C449.791 32 448 30.2091 448 28V4Z" fill="white"/>
<path d="M485.21 25.1287C487.054 25.1287 487.922 24.4252 488.68 22.293L492 12.98H490.077L487.851 20.1851H487.812L485.585 12.9897H483.608L486.812 21.8538L486.64 22.393C486.519 23.1647 485.826 23.7153 485.046 23.6584C484.897 23.6584 484.609 23.6429 484.491 23.6275V25.0913C484.73 25.1238 484.97 25.1392 485.21 25.1384V25.1287ZM478.804 20.4648C477.795 20.4648 477.155 19.9769 477.155 19.2385C477.155 18.4733 477.773 18.0276 478.953 17.9569L481.054 17.8243V18.5123C481.008 19.6459 480.05 20.5283 478.917 20.4819C478.879 20.4803 478.841 20.477 478.804 20.4738V20.4648ZM478.296 21.9099C479.441 21.9408 480.511 21.3447 481.086 20.3551H481.125V21.8189H482.875V15.7563C482.875 13.9981 481.469 12.8653 479.304 12.8653C477.296 12.8653 475.811 14.0136 475.757 15.592H477.46C477.664 14.7894 478.426 14.26 479.249 14.3494C480.406 14.3494 481.054 14.8886 481.054 15.8807V16.5524L478.696 16.6931C476.5 16.8257 475.313 17.7243 475.313 19.2873C475.311 20.8723 476.537 21.9189 478.296 21.9189L478.296 21.9099ZM468.155 11.2299H470.334C471.975 11.2299 472.913 12.1049 472.913 13.6444C472.913 15.1838 471.975 16.0661 470.327 16.0661H468.155V11.2299ZM466.264 9.636V21.8164H468.155V17.6641H470.772C472.905 17.7788 474.726 16.1434 474.84 14.0111C474.847 13.89 474.847 13.7696 474.843 13.6484C474.943 11.5397 473.316 9.74904 471.208 9.64739C471.083 9.64169 470.959 9.64251 470.835 9.6482L466.264 9.636ZM459.988 11.909C458.902 11.8463 457.972 12.5262 457.457 12.5262C456.941 12.5262 456.144 11.9407 455.285 11.9569C454.146 11.9862 453.108 12.6165 452.558 13.6135C451.386 15.6294 452.253 18.614 453.386 20.2542C453.94 21.0674 454.606 21.9579 455.48 21.9262C456.308 21.8953 456.636 21.387 457.636 21.387C458.637 21.387 458.934 21.9262 459.809 21.9099C460.715 21.8945 461.285 21.0967 461.842 20.2835C462.234 19.7077 462.539 19.0775 462.748 18.4131C461.68 17.9463 460.988 16.8948 460.982 15.7295C460.998 14.7016 461.537 13.7533 462.412 13.2142C461.854 12.4221 460.958 11.9358 459.99 11.9016L459.988 11.909ZM459.31 10.8331C458.834 11.4324 458.107 11.7764 457.341 11.7626C457.292 11.016 457.546 10.2817 458.045 9.72383C458.541 9.14807 459.24 8.787 459.996 8.71625C460.05 9.48393 459.804 10.2418 459.308 10.8306" fill="black"/>
<defs>
<clipPath id="clip0_1405_933">
<rect width="48" height="32" fill="white" transform="translate(128)"/>
</clipPath>
</defs>
</svg>
